<?xml version="1.0" encoding="UTF-8" standalone="no"?><!DOCTYPE svg PUBLIC "-//W3C//DTD SVG 1.1//EN" "http://www.w3.org/Graphics/SVG/1.1/DTD/svg11.dtd"><svg width="100%" height="100%" viewBox="0 0 101 30" version="1.1" xmlns="http://www.w3.org/2000/svg" xmlns:xlink="http://www.w3.org/1999/xlink" xml:space="preserve" xmlns:serif="http://www.serif.com/" style="fill-rule:evenodd;clip-rule:evenodd;stroke-linejoin:round;stroke-miterlimit:1.41421;"><g><path d="M7.811,18.904c-1.498,0 -2.961,-0.196 -4.389,-0.587c-1.429,-0.392 -2.569,-0.887 -3.422,-1.486l1.659,-3.284c0.829,0.553 1.826,0.997 2.989,1.331c1.164,0.334 2.31,0.501 3.439,0.501c2.581,0 3.871,-0.68 3.871,-2.039c0,-0.645 -0.328,-1.094 -0.985,-1.348c-0.657,-0.253 -1.711,-0.495 -3.162,-0.726c-1.521,-0.23 -2.759,-0.495 -3.716,-0.795c-0.956,-0.299 -1.785,-0.823 -2.488,-1.572c-0.703,-0.749 -1.054,-1.791 -1.054,-3.128c0,-1.751 0.732,-3.15 2.195,-4.199c1.463,-1.048 3.438,-1.572 5.927,-1.572c1.267,0 2.534,0.144 3.801,0.432c1.267,0.288 2.304,0.674 3.111,1.158l-1.659,3.283c-1.567,-0.922 -3.329,-1.383 -5.288,-1.383c-1.267,0 -2.229,0.19 -2.886,0.571c-0.656,0.38 -0.985,0.881 -0.985,1.503c0,0.691 0.352,1.181 1.054,1.469c0.703,0.288 1.792,0.558 3.266,0.812c1.475,0.23 2.685,0.495 3.629,0.795c0.945,0.299 1.757,0.806 2.437,1.52c0.679,0.715 1.019,1.728 1.019,3.042c0,1.728 -0.749,3.11 -2.246,4.147c-1.498,1.037 -3.537,1.555 -6.117,1.555Z" style="fill:#fff;fill-rule:nonzero;"/><path d="M28.201,18.904c-1.866,0 -3.548,-0.403 -5.046,-1.209c-1.497,-0.807 -2.667,-1.93 -3.508,-3.37c-0.84,-1.44 -1.261,-3.07 -1.261,-4.89c0,-1.82 0.421,-3.445 1.261,-4.873c0.841,-1.429 2.011,-2.546 3.508,-3.353c1.498,-0.806 3.18,-1.209 5.046,-1.209c1.889,0 3.583,0.403 5.08,1.209c1.498,0.807 2.667,1.924 3.508,3.353c0.841,1.428 1.262,3.053 1.262,4.873c0,1.82 -0.421,3.45 -1.262,4.89c-0.841,1.44 -2.01,2.563 -3.508,3.37c-1.497,0.806 -3.191,1.209 -5.08,1.209Zm0,-3.698c1.59,0 2.903,-0.53 3.94,-1.59c1.037,-1.059 1.555,-2.453 1.555,-4.181c0,-1.728 -0.518,-3.122 -1.555,-4.182c-1.037,-1.06 -2.35,-1.59 -3.94,-1.59c-1.59,0 -2.897,0.53 -3.922,1.59c-1.026,1.06 -1.538,2.454 -1.538,4.182c0,1.728 0.512,3.122 1.538,4.181c1.025,1.06 2.332,1.59 3.922,1.59Z" style="fill:#fff;fill-rule:nonzero;"/><path d="M52.67,0c2.327,0 4.193,0.679 5.598,2.039c1.406,1.359 2.108,3.375 2.108,6.048l0,10.575l-4.32,0l0,-10.022c0,-1.613 -0.38,-2.828 -1.14,-3.646c-0.76,-0.818 -1.843,-1.227 -3.249,-1.227c-1.589,0 -2.845,0.478 -3.767,1.434c-0.921,0.956 -1.382,2.333 -1.382,4.13l0,9.331l-4.32,0l0,-18.455l4.113,0l0,2.385c0.714,-0.853 1.612,-1.498 2.695,-1.936c1.083,-0.437 2.304,-0.656 3.664,-0.656Z" style="fill:#fff;fill-rule:nonzero;"/><path d="M84.085,0.207l0,18.455l-4.113,0l0,-2.384c-0.714,0.875 -1.596,1.532 -2.644,1.969c-1.048,0.438 -2.206,0.657 -3.473,0.657c-1.797,0 -3.404,-0.392 -4.821,-1.175c-1.417,-0.783 -2.523,-1.889 -3.318,-3.318c-0.795,-1.428 -1.192,-3.087 -1.192,-4.976c0,-1.89 0.397,-3.543 1.192,-4.96c0.795,-1.417 1.901,-2.517 3.318,-3.3c1.417,-0.784 3.024,-1.175 4.821,-1.175c1.198,0 2.298,0.207 3.3,0.622c1.003,0.415 1.872,1.025 2.61,1.832l0,-2.247l4.32,0Zm-9.746,14.999c1.589,0 2.903,-0.53 3.94,-1.59c1.036,-1.059 1.555,-2.453 1.555,-4.181c0,-1.728 -0.519,-3.122 -1.555,-4.182c-1.037,-1.06 -2.351,-1.59 -3.94,-1.59c-1.59,0 -2.898,0.53 -3.923,1.59c-1.025,1.06 -1.538,2.454 -1.538,4.182c0,1.728 0.513,3.122 1.538,4.181c1.025,1.06 2.333,1.59 3.923,1.59Z" style="fill:#fff;fill-rule:nonzero;"/><path d="M93.865,2.903c1.244,-1.936 3.433,-2.903 6.566,-2.903l0,4.112c-0.368,-0.069 -0.702,-0.103 -1.002,-0.103c-1.682,0 -2.995,0.489 -3.94,1.469c-0.944,0.979 -1.417,2.39 -1.417,4.233l0,8.951l-4.32,0l0,-18.455l4.113,0l0,2.696Z" style="fill:#fff;fill-rule:nonzero;"/></g><g><path d="M2.55,25.035c-0.051,-0.403 -0.376,-0.604 -0.973,-0.604c-0.596,0 -0.895,0.186 -0.895,0.557c0,0.155 0.063,0.272 0.19,0.352c0.127,0.08 0.286,0.146 0.477,0.197c0.191,0.052 0.399,0.1 0.624,0.143c0.225,0.044 0.432,0.106 0.624,0.186c0.191,0.08 0.35,0.19 0.476,0.329c0.127,0.139 0.19,0.33 0.19,0.572c0,0.377 -0.142,0.664 -0.426,0.863c-0.284,0.198 -0.669,0.297 -1.155,0.297c-0.517,0 -0.927,-0.129 -1.232,-0.386c-0.279,-0.227 -0.429,-0.524 -0.45,-0.89l0.605,0c0.036,0.356 0.237,0.596 0.604,0.719c0.135,0.042 0.268,0.062 0.399,0.062c0.132,0 0.255,-0.007 0.369,-0.023c0.113,-0.015 0.224,-0.044 0.333,-0.085c0.248,-0.098 0.372,-0.266 0.372,-0.503c0,-0.16 -0.063,-0.282 -0.19,-0.367c-0.127,-0.085 -0.285,-0.155 -0.477,-0.209c-0.191,-0.054 -0.399,-0.103 -0.624,-0.147c-0.224,-0.044 -0.432,-0.104 -0.624,-0.182c-0.191,-0.077 -0.35,-0.183 -0.476,-0.317c-0.127,-0.134 -0.19,-0.319 -0.19,-0.557c0,-0.35 0.128,-0.622 0.384,-0.816c0.255,-0.193 0.634,-0.29 1.135,-0.29c0.475,0 0.85,0.114 1.124,0.341c0.227,0.19 0.359,0.443 0.395,0.758l-0.589,0Z" style="fill:#f68212;fill-rule:nonzero;"/><path d="M6.426,24.779l-0.969,3.086l-0.667,0l-1.217,-3.867l0.62,0l0.931,3.148l0.984,-3.148l0.635,0l0.985,3.148l0.93,-3.148l0.62,0l-1.217,3.867l-0.666,0l-0.969,-3.086Z" style="fill:#f68212;fill-rule:nonzero;"/><path d="M9.852,23.998l0.581,0l0,3.867l-0.581,0l0,-3.867Zm0.604,-1.408l0,0.758l-0.628,0l0,-0.758l0.628,0Z" style="fill:#f68212;fill-rule:nonzero;"/><path d="M13.719,25.035c-0.051,-0.403 -0.376,-0.604 -0.972,-0.604c-0.597,0 -0.896,0.186 -0.896,0.557c0,0.155 0.064,0.272 0.19,0.352c0.127,0.08 0.286,0.146 0.477,0.197c0.191,0.052 0.399,0.1 0.624,0.143c0.225,0.044 0.433,0.106 0.624,0.186c0.191,0.08 0.35,0.19 0.477,0.329c0.126,0.139 0.189,0.33 0.189,0.572c0,0.377 -0.142,0.664 -0.426,0.863c-0.284,0.198 -0.669,0.297 -1.155,0.297c-0.517,0 -0.927,-0.129 -1.232,-0.386c-0.279,-0.227 -0.429,-0.524 -0.45,-0.89l0.605,0c0.036,0.356 0.238,0.596 0.604,0.719c0.135,0.042 0.268,0.062 0.4,0.062c0.131,0 0.254,-0.007 0.368,-0.023c0.113,-0.015 0.225,-0.044 0.333,-0.085c0.248,-0.098 0.372,-0.266 0.372,-0.503c0,-0.16 -0.063,-0.282 -0.19,-0.367c-0.126,-0.085 -0.285,-0.155 -0.476,-0.209c-0.192,-0.054 -0.4,-0.103 -0.624,-0.147c-0.225,-0.044 -0.433,-0.104 -0.624,-0.182c-0.192,-0.077 -0.35,-0.183 -0.477,-0.317c-0.127,-0.134 -0.19,-0.319 -0.19,-0.557c0,-0.35 0.128,-0.622 0.384,-0.816c0.255,-0.193 0.634,-0.29 1.135,-0.29c0.476,0 0.85,0.114 1.124,0.341c0.227,0.19 0.359,0.443 0.395,0.758l-0.589,0Z" style="fill:#f68212;fill-rule:nonzero;"/><path d="M17.455,25.035c-0.051,-0.403 -0.376,-0.604 -0.972,-0.604c-0.597,0 -0.896,0.186 -0.896,0.557c0,0.155 0.064,0.272 0.19,0.352c0.127,0.08 0.286,0.146 0.477,0.197c0.191,0.052 0.399,0.1 0.624,0.143c0.225,0.044 0.433,0.106 0.624,0.186c0.191,0.08 0.35,0.19 0.476,0.329c0.127,0.139 0.19,0.33 0.19,0.572c0,0.377 -0.142,0.664 -0.426,0.863c-0.284,0.198 -0.669,0.297 -1.155,0.297c-0.517,0 -0.927,-0.129 -1.232,-0.386c-0.279,-0.227 -0.429,-0.524 -0.45,-0.89l0.605,0c0.036,0.356 0.237,0.596 0.604,0.719c0.135,0.042 0.268,0.062 0.4,0.062c0.131,0 0.254,-0.007 0.368,-0.023c0.113,-0.015 0.225,-0.044 0.333,-0.085c0.248,-0.098 0.372,-0.266 0.372,-0.503c0,-0.16 -0.063,-0.282 -0.19,-0.367c-0.126,-0.085 -0.285,-0.155 -0.477,-0.209c-0.191,-0.054 -0.399,-0.103 -0.623,-0.147c-0.225,-0.044 -0.433,-0.104 -0.624,-0.182c-0.192,-0.077 -0.351,-0.183 -0.477,-0.317c-0.127,-0.134 -0.19,-0.319 -0.19,-0.557c0,-0.35 0.128,-0.622 0.384,-0.816c0.255,-0.193 0.634,-0.29 1.135,-0.29c0.476,0 0.85,0.114 1.124,0.341c0.227,0.19 0.359,0.443 0.395,0.758l-0.589,0Z" style="fill:#f68212;fill-rule:nonzero;"/><path d="M22.245,23.936c0.579,0 1.049,0.194 1.411,0.58c0.341,0.372 0.512,0.843 0.512,1.416c0,0.572 -0.171,1.044 -0.512,1.415c-0.362,0.387 -0.832,0.58 -1.411,0.58c-0.578,0 -1.049,-0.193 -1.41,-0.58c-0.341,-0.371 -0.512,-0.843 -0.512,-1.415c0,-0.573 0.171,-1.044 0.512,-1.416c0.361,-0.386 0.832,-0.58 1.41,-0.58Zm0,3.465c0.419,0 0.75,-0.144 0.993,-0.433c0.232,-0.273 0.348,-0.619 0.348,-1.036c0,-0.418 -0.116,-0.763 -0.348,-1.037c-0.243,-0.288 -0.574,-0.433 -0.993,-0.433c-0.418,0 -0.749,0.145 -0.992,0.433c-0.232,0.274 -0.349,0.619 -0.349,1.037c0,0.417 0.117,0.763 0.349,1.036c0.243,0.289 0.574,0.433 0.992,0.433Z" style="fill:#f68212;fill-rule:nonzero;"/><path d="M25.516,24.617c0.31,-0.454 0.773,-0.681 1.388,-0.681c0.558,0 1.01,0.194 1.356,0.58c0.346,0.382 0.519,0.854 0.519,1.416c0,0.562 -0.173,1.034 -0.519,1.415c-0.346,0.387 -0.811,0.58 -1.395,0.58c-0.584,0 -1.033,-0.229 -1.349,-0.688l0,2.158l-0.581,0l0,-5.399l0.581,0l0,0.619Zm1.31,-0.155c-0.418,0 -0.749,0.145 -0.992,0.433c-0.232,0.274 -0.349,0.619 -0.349,1.037c0,0.417 0.117,0.763 0.349,1.036c0.243,0.289 0.574,0.433 0.992,0.433c0.414,0 0.749,-0.144 1.008,-0.433c0.243,-0.273 0.364,-0.619 0.364,-1.036c0,-0.418 -0.121,-0.763 -0.364,-1.037c-0.259,-0.288 -0.594,-0.433 -1.008,-0.433Z" style="fill:#f68212;fill-rule:nonzero;"/><path d="M31.268,27.401c0.521,0 0.896,-0.216 1.123,-0.649l0.636,0c-0.134,0.35 -0.348,0.634 -0.639,0.85c-0.292,0.217 -0.668,0.325 -1.128,0.325c-0.584,0 -1.06,-0.193 -1.426,-0.58c-0.357,-0.376 -0.535,-0.848 -0.535,-1.415c0,-0.573 0.17,-1.044 0.511,-1.416c0.362,-0.386 0.832,-0.58 1.411,-0.58c0.579,0 1.049,0.194 1.411,0.58c0.341,0.372 0.511,0.843 0.511,1.416l0,0.232l-3.247,0c0.041,0.356 0.183,0.65 0.426,0.882c0.248,0.237 0.563,0.355 0.946,0.355Zm-0.047,-2.939c-0.357,0 -0.656,0.111 -0.899,0.333c-0.227,0.211 -0.367,0.487 -0.419,0.827l2.636,0c-0.052,-0.34 -0.192,-0.616 -0.419,-0.827c-0.243,-0.222 -0.542,-0.333 -0.899,-0.333Z" style="fill:#f68212;fill-rule:nonzero;"/><path d="M34.438,23.998l0,0.603c0.139,-0.185 0.31,-0.342 0.511,-0.471c0.202,-0.129 0.432,-0.194 0.69,-0.194c0.258,0 0.481,0.036 0.667,0.109c0.186,0.072 0.348,0.18 0.488,0.324c0.32,0.315 0.481,0.73 0.481,1.246l0,2.25l-0.582,0l0,-2.235c0,-0.356 -0.101,-0.639 -0.302,-0.851c-0.202,-0.211 -0.463,-0.317 -0.783,-0.317c-0.325,0 -0.602,0.109 -0.829,0.325c-0.228,0.222 -0.341,0.505 -0.341,0.851l0,2.227l-0.582,0l0,-3.867l0.582,0Z" style="fill:#f68212;fill-rule:nonzero;"/><path d="M42.917,27.247c-0.31,0.453 -0.772,0.68 -1.387,0.68c-0.558,0 -1.013,-0.193 -1.364,-0.58c-0.341,-0.381 -0.512,-0.853 -0.512,-1.415c0,-0.562 0.171,-1.034 0.512,-1.416c0.351,-0.386 0.819,-0.58 1.403,-0.58c0.583,0 1.033,0.23 1.348,0.689l0,-0.627l0.582,0l0,3.867l-0.582,0l0,-0.618Zm-1.31,0.154c0.419,0 0.75,-0.144 0.992,-0.433c0.233,-0.273 0.349,-0.619 0.349,-1.036c0,-0.418 -0.116,-0.763 -0.349,-1.037c-0.242,-0.288 -0.573,-0.433 -0.992,-0.433c-0.413,0 -0.749,0.145 -1.007,0.433c-0.243,0.274 -0.365,0.619 -0.365,1.037c0,0.417 0.122,0.763 0.365,1.036c0.258,0.289 0.594,0.433 1.007,0.433Z" style="fill:#f68212;fill-rule:nonzero;"/><path d="M46.297,27.401c0.248,0 0.467,-0.069 0.658,-0.208c0.192,-0.14 0.331,-0.32 0.419,-0.542l0.628,0c-0.119,0.382 -0.336,0.688 -0.651,0.921c-0.331,0.237 -0.724,0.355 -1.178,0.355c-0.569,0 -1.031,-0.193 -1.388,-0.58c-0.346,-0.376 -0.519,-0.848 -0.519,-1.415c0,-0.567 0.173,-1.039 0.519,-1.416c0.357,-0.386 0.819,-0.58 1.388,-0.58c0.454,0 0.847,0.119 1.178,0.356c0.315,0.232 0.532,0.539 0.651,0.92l-0.628,0c-0.088,-0.221 -0.227,-0.402 -0.419,-0.541c-0.191,-0.139 -0.41,-0.209 -0.658,-0.209c-0.248,0 -0.459,0.039 -0.632,0.116c-0.173,0.078 -0.319,0.183 -0.438,0.317c-0.253,0.279 -0.38,0.624 -0.38,1.037c0,0.412 0.127,0.758 0.38,1.036c0.258,0.289 0.615,0.433 1.07,0.433Z" style="fill:#f68212;fill-rule:nonzero;"/><path d="M50.513,27.401c0.248,0 0.468,-0.069 0.659,-0.208c0.191,-0.14 0.331,-0.32 0.419,-0.542l0.627,0c-0.118,0.382 -0.335,0.688 -0.651,0.921c-0.33,0.237 -0.723,0.355 -1.178,0.355c-0.568,0 -1.031,-0.193 -1.387,-0.58c-0.346,-0.376 -0.52,-0.848 -0.52,-1.415c0,-0.567 0.174,-1.039 0.52,-1.416c0.356,-0.386 0.819,-0.58 1.387,-0.58c0.455,0 0.848,0.119 1.178,0.356c0.316,0.232 0.533,0.539 0.651,0.92l-0.627,0c-0.088,-0.221 -0.228,-0.402 -0.419,-0.541c-0.191,-0.139 -0.411,-0.209 -0.659,-0.209c-0.248,0 -0.458,0.039 -0.632,0.116c-0.173,0.078 -0.319,0.183 -0.437,0.317c-0.254,0.279 -0.38,0.624 -0.38,1.037c0,0.412 0.126,0.758 0.38,1.036c0.258,0.289 0.614,0.433 1.069,0.433Z" style="fill:#f68212;fill-rule:nonzero;"/><path d="M54.668,27.401c0.522,0 0.896,-0.216 1.124,-0.649l0.635,0c-0.134,0.35 -0.347,0.634 -0.639,0.85c-0.292,0.217 -0.668,0.325 -1.128,0.325c-0.584,0 -1.059,-0.193 -1.426,-0.58c-0.357,-0.376 -0.535,-0.848 -0.535,-1.415c0,-0.573 0.17,-1.044 0.512,-1.416c0.361,-0.386 0.831,-0.58 1.41,-0.58c0.579,0 1.049,0.194 1.411,0.58c0.341,0.372 0.511,0.843 0.511,1.416l0,0.232l-3.247,0c0.041,0.356 0.183,0.65 0.426,0.882c0.248,0.237 0.563,0.355 0.946,0.355Zm-0.047,-2.939c-0.356,0 -0.656,0.111 -0.899,0.333c-0.227,0.211 -0.367,0.487 -0.418,0.827l2.635,0c-0.052,-0.34 -0.191,-0.616 -0.419,-0.827c-0.243,-0.222 -0.542,-0.333 -0.899,-0.333Z" style="fill:#f68212;fill-rule:nonzero;"/><path d="M59.535,25.035c-0.051,-0.403 -0.376,-0.604 -0.972,-0.604c-0.597,0 -0.896,0.186 -0.896,0.557c0,0.155 0.064,0.272 0.19,0.352c0.127,0.08 0.286,0.146 0.477,0.197c0.191,0.052 0.399,0.1 0.624,0.143c0.225,0.044 0.433,0.106 0.624,0.186c0.191,0.08 0.35,0.19 0.477,0.329c0.126,0.139 0.189,0.33 0.189,0.572c0,0.377 -0.142,0.664 -0.426,0.863c-0.284,0.198 -0.669,0.297 -1.155,0.297c-0.517,0 -0.927,-0.129 -1.232,-0.386c-0.279,-0.227 -0.429,-0.524 -0.45,-0.89l0.605,0c0.036,0.356 0.238,0.596 0.604,0.719c0.135,0.042 0.268,0.062 0.4,0.062c0.131,0 0.254,-0.007 0.368,-0.023c0.113,-0.015 0.225,-0.044 0.333,-0.085c0.248,-0.098 0.372,-0.266 0.372,-0.503c0,-0.16 -0.063,-0.282 -0.19,-0.367c-0.126,-0.085 -0.285,-0.155 -0.476,-0.209c-0.192,-0.054 -0.4,-0.103 -0.624,-0.147c-0.225,-0.044 -0.433,-0.104 -0.624,-0.182c-0.192,-0.077 -0.35,-0.183 -0.477,-0.317c-0.127,-0.134 -0.19,-0.319 -0.19,-0.557c0,-0.35 0.128,-0.622 0.384,-0.816c0.255,-0.193 0.634,-0.29 1.135,-0.29c0.476,0 0.85,0.114 1.124,0.341c0.227,0.19 0.359,0.443 0.395,0.758l-0.589,0Z" style="fill:#f68212;fill-rule:nonzero;"/><path d="M63.271,25.035c-0.051,-0.403 -0.376,-0.604 -0.972,-0.604c-0.597,0 -0.896,0.186 -0.896,0.557c0,0.155 0.064,0.272 0.19,0.352c0.127,0.08 0.286,0.146 0.477,0.197c0.191,0.052 0.399,0.1 0.624,0.143c0.225,0.044 0.433,0.106 0.624,0.186c0.191,0.08 0.35,0.19 0.476,0.329c0.127,0.139 0.19,0.33 0.19,0.572c0,0.377 -0.142,0.664 -0.426,0.863c-0.284,0.198 -0.669,0.297 -1.155,0.297c-0.517,0 -0.927,-0.129 -1.232,-0.386c-0.279,-0.227 -0.429,-0.524 -0.45,-0.89l0.605,0c0.036,0.356 0.237,0.596 0.604,0.719c0.135,0.042 0.268,0.062 0.4,0.062c0.131,0 0.254,-0.007 0.368,-0.023c0.113,-0.015 0.224,-0.044 0.333,-0.085c0.248,-0.098 0.372,-0.266 0.372,-0.503c0,-0.16 -0.063,-0.282 -0.19,-0.367c-0.126,-0.085 -0.285,-0.155 -0.477,-0.209c-0.191,-0.054 -0.399,-0.103 -0.623,-0.147c-0.225,-0.044 -0.433,-0.104 -0.624,-0.182c-0.192,-0.077 -0.351,-0.183 -0.477,-0.317c-0.127,-0.134 -0.19,-0.319 -0.19,-0.557c0,-0.35 0.128,-0.622 0.384,-0.816c0.255,-0.193 0.634,-0.29 1.135,-0.29c0.476,0 0.85,0.114 1.124,0.341c0.227,0.19 0.359,0.443 0.395,0.758l-0.589,0Z" style="fill:#f68212;fill-rule:nonzero;"/><path d="M68.426,23.936l0,0.58l-0.07,0c-0.419,0 -0.76,0.168 -1.023,0.503c-0.248,0.32 -0.372,0.701 -0.372,1.145l0,1.701l-0.582,0l0,-3.867l0.582,0l0,0.952c0.124,-0.403 0.392,-0.699 0.806,-0.89c0.17,-0.082 0.377,-0.124 0.62,-0.124l0.039,0Z" style="fill:#f68212;fill-rule:nonzero;"/><path d="M70.681,27.401c0.522,0 0.897,-0.216 1.124,-0.649l0.636,0c-0.135,0.35 -0.348,0.634 -0.64,0.85c-0.292,0.217 -0.668,0.325 -1.128,0.325c-0.583,0 -1.059,-0.193 -1.426,-0.58c-0.356,-0.376 -0.535,-0.848 -0.535,-1.415c0,-0.573 0.171,-1.044 0.512,-1.416c0.362,-0.386 0.832,-0.58 1.411,-0.58c0.578,0 1.049,0.194 1.41,0.58c0.341,0.372 0.512,0.843 0.512,1.416l0,0.232l-3.248,0c0.042,0.356 0.184,0.65 0.427,0.882c0.248,0.237 0.563,0.355 0.945,0.355Zm-0.046,-2.939c-0.357,0 -0.657,0.111 -0.899,0.333c-0.228,0.211 -0.367,0.487 -0.419,0.827l2.635,0c-0.051,-0.34 -0.191,-0.616 -0.418,-0.827c-0.243,-0.222 -0.543,-0.333 -0.899,-0.333Z" style="fill:#f68212;fill-rule:nonzero;"/><path d="M73.851,24.617c0.31,-0.454 0.773,-0.681 1.388,-0.681c0.558,0 1.01,0.194 1.356,0.58c0.346,0.382 0.52,0.854 0.52,1.416c0,0.562 -0.174,1.034 -0.52,1.415c-0.346,0.387 -0.811,0.58 -1.395,0.58c-0.584,0 -1.033,-0.229 -1.349,-0.688l0,2.158l-0.581,0l0,-5.399l0.581,0l0,0.619Zm1.31,-0.155c-0.418,0 -0.749,0.145 -0.992,0.433c-0.232,0.274 -0.349,0.619 -0.349,1.037c0,0.417 0.117,0.763 0.349,1.036c0.243,0.289 0.574,0.433 0.992,0.433c0.414,0 0.75,-0.144 1.008,-0.433c0.243,-0.273 0.364,-0.619 0.364,-1.036c0,-0.418 -0.121,-0.763 -0.364,-1.037c-0.258,-0.288 -0.594,-0.433 -1.008,-0.433Z" style="fill:#f68212;fill-rule:nonzero;"/><path d="M79.556,23.936c0.579,0 1.049,0.194 1.411,0.58c0.341,0.372 0.511,0.843 0.511,1.416c0,0.572 -0.17,1.044 -0.511,1.415c-0.362,0.387 -0.832,0.58 -1.411,0.58c-0.579,0 -1.049,-0.193 -1.411,-0.58c-0.341,-0.371 -0.511,-0.843 -0.511,-1.415c0,-0.573 0.17,-1.044 0.511,-1.416c0.362,-0.386 0.832,-0.58 1.411,-0.58Zm0,3.465c0.419,0 0.749,-0.144 0.992,-0.433c0.233,-0.273 0.349,-0.619 0.349,-1.036c0,-0.418 -0.116,-0.763 -0.349,-1.037c-0.243,-0.288 -0.573,-0.433 -0.992,-0.433c-0.418,0 -0.749,0.145 -0.992,0.433c-0.233,0.274 -0.349,0.619 -0.349,1.037c0,0.417 0.116,0.763 0.349,1.036c0.243,0.289 0.574,0.433 0.992,0.433Z" style="fill:#f68212;fill-rule:nonzero;"/><path d="M84.524,25.035c-0.051,-0.403 -0.375,-0.604 -0.972,-0.604c-0.597,0 -0.896,0.186 -0.896,0.557c0,0.155 0.064,0.272 0.19,0.352c0.127,0.08 0.286,0.146 0.477,0.197c0.191,0.052 0.399,0.1 0.624,0.143c0.225,0.044 0.433,0.106 0.624,0.186c0.191,0.08 0.35,0.19 0.477,0.329c0.126,0.139 0.19,0.33 0.19,0.572c0,0.377 -0.143,0.664 -0.427,0.863c-0.284,0.198 -0.669,0.297 -1.155,0.297c-0.516,0 -0.927,-0.129 -1.232,-0.386c-0.279,-0.227 -0.429,-0.524 -0.45,-0.89l0.605,0c0.036,0.356 0.238,0.596 0.605,0.719c0.134,0.042 0.267,0.062 0.399,0.062c0.131,0 0.254,-0.007 0.368,-0.023c0.114,-0.015 0.225,-0.044 0.333,-0.085c0.248,-0.098 0.372,-0.266 0.372,-0.503c0,-0.16 -0.063,-0.282 -0.19,-0.367c-0.126,-0.085 -0.285,-0.155 -0.476,-0.209c-0.192,-0.054 -0.4,-0.103 -0.624,-0.147c-0.225,-0.044 -0.433,-0.104 -0.624,-0.182c-0.191,-0.077 -0.35,-0.183 -0.477,-0.317c-0.127,-0.134 -0.19,-0.319 -0.19,-0.557c0,-0.35 0.128,-0.622 0.384,-0.816c0.256,-0.193 0.634,-0.29 1.135,-0.29c0.476,0 0.85,0.114 1.124,0.341c0.228,0.19 0.359,0.443 0.396,0.758l-0.59,0Z" style="fill:#f68212;fill-rule:nonzero;"/><path d="M85.982,23.998l0.581,0l0,3.867l-0.581,0l0,-3.867Zm0.604,-1.408l0,0.758l-0.628,0l0,-0.758l0.628,0Z" style="fill:#f68212;fill-rule:nonzero;"/><path d="M87.989,27.865l0,-3.356l-0.79,0l0,-0.511l0.79,0l0,-1.384l0.581,0l0,1.384l0.892,0l0,0.511l-0.892,0l0,3.356l-0.581,0Z" style="fill:#f68212;fill-rule:nonzero;"/><path d="M91.702,23.936c0.579,0 1.049,0.194 1.411,0.58c0.341,0.372 0.511,0.843 0.511,1.416c0,0.572 -0.17,1.044 -0.511,1.415c-0.362,0.387 -0.832,0.58 -1.411,0.58c-0.579,0 -1.049,-0.193 -1.411,-0.58c-0.341,-0.371 -0.511,-0.843 -0.511,-1.415c0,-0.573 0.17,-1.044 0.511,-1.416c0.362,-0.386 0.832,-0.58 1.411,-0.58Zm0,3.465c0.418,0 0.749,-0.144 0.992,-0.433c0.233,-0.273 0.349,-0.619 0.349,-1.036c0,-0.418 -0.116,-0.763 -0.349,-1.037c-0.243,-0.288 -0.574,-0.433 -0.992,-0.433c-0.419,0 -0.749,0.145 -0.992,0.433c-0.233,0.274 -0.349,0.619 -0.349,1.037c0,0.417 0.116,0.763 0.349,1.036c0.243,0.289 0.573,0.433 0.992,0.433Z" style="fill:#f68212;fill-rule:nonzero;"/><path d="M96.438,23.936l0,0.58l-0.07,0c-0.419,0 -0.76,0.168 -1.023,0.503c-0.248,0.32 -0.372,0.701 -0.372,1.145l0,1.701l-0.582,0l0,-3.867l0.582,0l0,0.952c0.124,-0.403 0.392,-0.699 0.806,-0.89c0.17,-0.082 0.377,-0.124 0.62,-0.124l0.039,0Z" style="fill:#f68212;fill-rule:nonzero;"/><path d="M98.096,29.397l-0.627,0l0.705,-1.586l-1.581,-3.813l0.643,0l1.248,3.171l1.271,-3.171l0.636,0l-2.295,5.399Z" style="fill:#f68212;fill-rule:nonzero;"/></g></svg>