<?xml version="1.0" encoding="utf-8"?>
<!-- Generator: Adobe Illustrator 21.1.0, SVG Export Plug-In . SVG Version: 6.00 Build 0)  -->
<svg version="1.1" id="Layer_1" xmlns="http://www.w3.org/2000/svg" xmlns:xlink="http://www.w3.org/1999/xlink" x="0px" y="0px"
	 viewBox="0 0 200 200" style="enable-background:new 0 0 200 200;" xml:space="preserve">
<g>
	<path d="M180,41.7h-51.1V31.1h42.2C153.1,12.5,127.8,1,99.9,1C45.2,1.1,0.9,45.4,1,100.1c0,26.8,10.7,51.1,28.1,68.9
		c-1.4-2-2.4-4.1-3-6.1c-1-3.5-1-5.9-1.1-15.8v-47.1h14.8v48.5c0,3.4-0.1,6.6,1,9.6c3,7.6,11.3,8.5,16,8.5c2.3,0,8.3-0.1,12.6-3.9
		c4.4-3.9,4.4-8.4,4.4-15v-47.7h14.9v49.7c-0.1,8.9-0.1,16.3-8.5,23.5c-8,7-18.4,7.7-23.8,7.7c-4.8,0-9.5-0.6-14-2.1
		c-1.8-0.6-3.5-1.4-5-2.3c17.1,14,39,22.4,62.8,22.4c54.7-0.1,99-44.4,98.9-99.1C199,78.1,191.9,58,180,41.7z M175.3,94.4l-6.3-9
		c2.1-1.4,8.7-5.7,8.7-17.7c0-2-0.2-4.1-1-6.2c-1.7-4.1-4.6-4.9-6.6-4.9c-3.6,0-4.9,2.5-5.7,4.3c-0.5,1.3-0.6,1.5-1.8,6.6l-1.5,6.9
		c-0.9,3.6-1.3,5.4-2,7.2c-1.1,2.6-4.5,9.6-14,9.6c-10.9,0-17.8-9.2-17.8-22.6c0-12.3,6.1-19,11.6-23l6.6,8.8
		c-2.8,1.9-8.5,5.7-8.5,14.8c0,5.8,2.6,10.8,7,10.8c4.9,0,5.8-5.3,6.8-10.5l1.3-5.9c1.6-7.7,4.8-18.6,17-18.6
		c13.1,0,18.4,12.2,18.4,24.3c0,3.2-0.3,6.7-1.3,10.2C185.1,83.4,182.3,90.1,175.3,94.4z"/>
</g>
</svg>
